<svg version="1.1" xmlns="http://www.w3.org/2000/svg" style="display: block;" viewBox="0 0 1600 1600" width="400" height="400" preserveAspectRatio="none">
<path transform="translate(0,0)" fill="rgb(0,0,0)" d="M 540.293 148.323 C 575.256 146.637 608.13 152.265 642.901 152.211 C 668.559 151.115 693.601 150.666 719.267 150.084 C 834.955 147.464 950.697 147.832 1066.41 148.541 C 1092.21 148.699 1118.35 151.763 1144.31 152.328 L 1217.25 153.524 C 1228.81 153.704 1249.17 153.524 1259.84 155.357 C 1264.16 156.104 1268.28 157.746 1271.93 160.177 C 1280.1 165.56 1293.27 179.429 1294.51 189.364 C 1298.16 218.403 1296.48 251.82 1296.93 281.323 L 1298.21 403.312 C 1298.33 410.827 1298.66 418.473 1299.04 425.985 C 1300.01 445.278 1300.36 464.59 1300.06 483.905 C 1299.63 512.581 1296.91 541.246 1296.6 569.941 C 1296.09 617.448 1299.53 664.798 1299.23 712.297 C 1298.77 721.301 1296.24 729.351 1296.25 738.506 C 1296.34 827.28 1291.81 915.909 1294.56 1004.7 C 1294.6 1010.68 1294.37 1016.68 1294.25 1022.65 C 1293.27 1070.8 1297.32 1119 1295.83 1167.15 C 1295.41 1180.51 1291.12 1195.68 1284.14 1207.08 C 1280.55 1212.95 1274.04 1218.1 1268.36 1221.77 C 1243.17 1238.78 1218.11 1227.99 1188.86 1234.33 C 1184.8 1265.98 1196.35 1310.99 1171.13 1337.26 C 1164.47 1344.2 1150.44 1352.16 1141.23 1354.68 C 1130.89 1356.55 1108.49 1355.97 1097.13 1355.99 C 1073.68 1356.06 1050.22 1356.24 1026.76 1356.55 C 1013.59 1356.74 1000.55 1357.75 987.605 1357.95 C 865.792 1360.14 743.957 1360.75 622.128 1359.78 C 597.167 1359.44 571.803 1356.68 546.68 1356.19 C 520.237 1355.78 493.797 1355.18 467.363 1354.41 C 452.369 1354.09 434.714 1354.35 420.238 1352.45 C 406.776 1349.91 388.796 1332.28 386.512 1319.02 C 382.324 1294.68 383.664 1268.95 383.836 1244.44 C 383.956 1218.7 383.89 1192.96 383.639 1167.22 C 383.159 1118.39 380.662 1070.66 380.598 1022.03 C 380.569 999.644 383.645 975.222 384.002 952.378 L 388.063 611.347 C 388.415 559.534 388.089 507.689 387.99 455.805 C 387.897 407.074 375.925 347.846 395.372 302.037 C 414.991 255.825 451.892 217.243 487.316 182.641 C 506.612 163.793 513.564 154.634 540.293 148.323 z M 747.438 1283.96 L 978.549 1280.16 C 999.069 1280.02 1020.51 1281.26 1041.36 1280.19 C 1049.34 1279.78 1062.93 1282.23 1069.87 1281.89 C 1081.46 1281.31 1102.79 1278.6 1114.08 1276.03 C 1115.3 1273.55 1118.11 1268 1118.35 1265.44 C 1122.58 1220.51 1117.39 1170.05 1116.9 1125.52 L 1112.98 703.771 L 1112.36 466.162 L 1112.22 397.737 C 1112.18 385.114 1112.68 365.72 1110.72 353.971 C 1100.39 352.185 1091.91 352.347 1081.53 352.133 C 1023.58 350.937 965.311 354.342 907.478 349.935 C 881.339 347.943 855.867 347.797 829.664 348.474 C 789.639 349.29 749.61 349.885 709.579 350.26 C 695.817 350.323 682.253 349.632 668.655 349.68 C 644.828 349.763 619.711 351.845 595.988 351.841 L 522.801 351.614 C 516.634 351.537 505.686 349.174 502.345 349.566 C 486.864 351.383 472.213 352.191 457.678 357.755 C 453.878 366.899 453.52 369.741 453.662 379.594 C 455.356 497.046 456.681 614.436 456.308 731.908 C 456.245 751.824 459.392 772.487 459.508 792.499 C 460.288 825.221 460.486 857.656 460.469 890.387 L 459.663 1127.12 C 459.53 1162.16 459.069 1195.12 460.929 1230.14 C 461.861 1247.69 460.521 1258.87 462.899 1277.89 C 471.22 1278.42 479.447 1277.88 487.487 1278.37 C 555.906 1282.61 624.024 1277.15 692.503 1283.94 C 708.051 1285.48 731.316 1284.1 747.438 1283.96 z M 566.439 233.796 C 559.059 249.291 562.117 257.818 561.824 274.581 C 620.138 277.372 676.093 271.939 734.1 271.972 C 804.773 272.012 875.671 272.116 946.353 272.495 C 973.16 272.638 999.992 275.608 1026.55 276.139 C 1050.53 276.719 1074.52 277.061 1098.5 277.165 C 1114.57 277.21 1136.22 276.206 1151.43 278.596 C 1165.51 280.808 1186 301.498 1187.19 316.082 C 1189.28 334.5 1189.04 353.921 1188.95 372.468 C 1188.98 387.517 1189.15 402.565 1189.44 417.612 L 1190.16 525.631 C 1190.98 575.259 1193.4 620.25 1189.61 670.278 C 1185.53 724.018 1193.49 781.057 1191.21 834.987 C 1191.01 843.694 1188.57 852.953 1188.43 861.075 C 1188.25 933.992 1186.06 1007.09 1186.51 1079.82 L 1186.8 1127.93 C 1186.84 1136.79 1186.38 1147.06 1187.35 1155.74 C 1190.14 1158.18 1216.46 1154.2 1221.33 1153.51 C 1224.91 1146.46 1227.73 1141.42 1227.76 1133.24 C 1227.92 1092.82 1227.5 1052.34 1224.95 1012 C 1224.59 1006.45 1224.6 1000.58 1224.57 994.999 L 1221.31 543.267 L 1220.76 333.697 C 1220.75 312.959 1220.59 292.221 1220.29 271.485 C 1220.18 259.561 1220.7 241.64 1218.58 230.495 C 1202.08 227.028 1178 228.004 1160.68 228.013 C 1130.72 228.223 1100.76 228.279 1070.8 228.18 C 1042.61 227.917 1015.37 224.663 987.602 224.159 C 956.915 223.603 925.185 223.843 894.504 224.462 C 867.482 225.142 840.452 225.442 813.421 225.362 C 805.873 225.333 798.101 225.293 790.56 225 C 761.637 223.878 732.266 228.426 703.373 227.859 C 678.992 227.38 654.934 226.678 630.504 227.51 C 624.55 227.713 617.492 224.8 611.41 225.318 C 595.872 227.546 580.926 227.859 566.439 233.796 z"/>
<path transform="translate(0,0)" fill="rgb(0,0,0)" d="M 977.145 504.441 C 1027.43 505.037 1069.77 547.318 1070.67 597.379 C 1071.56 647.017 1043.81 679.029 1020.75 720.103 C 1015.07 730.23 1009.35 740.046 1003.21 749.859 C 945.955 826.109 909.989 915.538 850.158 990.022 C 847.914 993.488 844.681 997.554 842.698 1001.12 C 825.912 1034.98 787.74 1060.74 748.999 1059 C 714.151 1057.43 654.697 996.053 631.651 973.098 C 626.735 967.412 609.321 950.514 603.255 944.797 C 587.737 930.172 580.008 919.932 566.242 904.371 C 554.019 891.631 541.888 878.759 532.454 863.69 C 506.357 822.008 520.675 762.581 563.64 737.651 C 616.391 707.044 668.178 724.87 708.245 765.992 C 714.227 772.132 724.834 786.721 732.548 788.557 C 735.4 788.106 738.516 784.726 740.081 782.375 C 761.763 749.793 786.315 716.107 806.651 682.836 C 835.357 635.874 861.808 587.817 894.641 543.595 C 911.643 520.694 949.343 506.903 977.145 504.441 z M 621.543 876.744 C 639.551 901.83 665.873 922.357 688.078 943.228 C 715.32 968.834 717.309 975.86 753.496 987.902 C 777.665 983.111 786.001 964.815 799.961 946.675 C 809.283 934.564 817.166 920.244 826.358 908.215 C 851.878 874.818 874.195 839.832 894.969 803.319 C 901.34 792.149 909.579 781.501 915.627 770.206 C 936.546 731.14 960.319 693.795 980.911 654.581 C 985.068 646.666 989.822 639.065 993.475 630.913 C 997.479 621.205 999.638 608.508 1002.61 598.26 C 999.033 586.148 993.811 581.583 982.766 575.885 L 971.963 576.144 C 935.347 584.169 926.838 610.366 911.085 639.002 L 870.747 711.238 C 864.642 721.953 857.543 732.931 850.261 742.866 C 823.385 779.534 806.506 822.312 780.079 859.523 C 774.371 867.562 770.237 877.344 763.144 884.435 C 744.313 902.893 729.295 882.108 716.292 869.448 C 704.521 858.038 692.827 846.549 681.21 834.982 C 667.173 820.869 650.793 801.435 633.375 791.82 C 618.945 783.855 598.473 786.62 588.84 801.326 C 583.916 808.89 582.258 818.123 584.245 826.928 C 588.453 846.452 608.786 861.404 621.543 876.744 z"/>
</svg>