<svg version="1.1" xmlns="http://www.w3.org/2000/svg" style="display: block;" viewBox="0 0 1600 1600" width="400" height="400" preserveAspectRatio="none">
<path transform="translate(0,0)" fill="rgb(0,0,0)" d="M 615.629 180.38 C 631.997 179.657 648.524 179.837 664.882 180.879 C 669.411 181.167 673.952 181.608 678.494 181.538 C 764.877 180.65 851.269 180.915 937.645 182.332 C 984.434 182.867 1032.1 187.538 1079.12 187.447 C 1093.59 187.419 1109.97 189.748 1124.88 190.242 L 1200.5 192.205 C 1214.59 192.564 1233.98 192.24 1247.45 195.11 C 1265.72 199.003 1290.09 218.348 1291.55 238.344 C 1292.85 255.982 1292.14 274.448 1292.19 292.017 C 1292.52 334.147 1292.48 376.278 1292.07 418.407 L 1287.86 825.734 C 1263.95 827.137 1221.87 829.816 1199.22 836.784 C 1198.78 774.249 1199.11 711.711 1200.19 649.184 C 1200.62 632.096 1201.68 614.956 1202.24 597.856 C 1205.71 491.122 1202.44 383.986 1204.12 277.272 C 1188.09 276.226 1168.78 276.462 1152.56 276.312 C 1121.79 276.143 1091.02 275.69 1060.26 274.953 C 1030.15 274.094 997.896 270.262 968.002 269.986 C 860.505 268.996 752.949 267.948 645.464 270.224 C 618.882 270.787 590.478 266.803 563.504 267.996 C 553.253 267.387 543.462 266.433 533.16 266.5 C 518.103 266.599 504.002 270.276 489.348 272.227 C 482.111 291.624 484.486 325.661 484.701 347.075 L 485.481 444.272 C 485.13 543.21 484.12 642.144 482.453 741.068 L 476.588 1283.21 L 478.054 1283.12 C 504.018 1281.61 536.408 1283.93 562.984 1284.72 L 706.865 1289.62 C 784.576 1293.02 869.057 1288.03 946.908 1292.95 C 948.968 1293.08 965.404 1329.76 968.782 1334.93 C 979.286 1351.01 991.067 1366.29 1005.62 1379.13 L 1006.61 1380 C 987.398 1379.68 967.775 1380.42 948.5 1380.3 L 728.009 1377.97 C 694.766 1377.29 661.496 1374.58 628.254 1373.76 C 595.433 1373.1 562.706 1369.78 529.923 1368.88 C 502.73 1368.34 475.362 1368.57 448.187 1368.17 C 425.77 1367.84 408.29 1358.37 404.61 1334.86 C 400.363 1307.72 405.499 1279.47 404.448 1252.6 C 402.978 1215.04 402.472 1177.99 401.965 1140.42 C 398.842 981.445 398.264 822.429 400.233 663.434 C 400.497 647.698 402.357 631.319 403.066 615.545 C 403.984 595.117 404.447 574.644 404.829 554.199 C 405.675 486.445 406.063 418.685 405.995 350.926 C 405.854 318.577 403.5 285.641 405.245 253.201 C 406.803 224.255 423.871 190.545 454.428 182.869 C 466.046 179.951 483.281 181.213 495.491 181.289 L 563.779 181.613 C 579.601 181.734 600.27 182.618 615.629 180.38 z"/>
<path transform="translate(0,0)" fill="rgb(0,0,0)" d="M 1228.51 886.335 C 1376.06 874.267 1505.36 984.327 1517.02 1131.91 C 1528.68 1279.5 1418.26 1408.49 1270.64 1419.74 C 1123.6 1430.94 995.226 1321.05 983.616 1174.04 C 972.006 1027.04 1081.54 898.356 1228.51 886.335 z M 1264.8 1323.42 C 1283.45 1307.14 1308.3 1280.28 1326.5 1262.31 C 1350.41 1238.93 1371.33 1212.99 1391.07 1186.07 C 1407.53 1163.63 1421.76 1143.12 1421.9 1113.95 C 1421.88 1090.11 1412.37 1067.26 1395.48 1050.45 C 1379.31 1034.6 1355.48 1025.44 1332.9 1025.75 C 1309.38 1025.94 1286.93 1035.55 1270.55 1052.42 C 1263.96 1059.31 1258.42 1067.12 1254.1 1075.62 C 1243.85 1054.28 1225.46 1037.96 1203.06 1030.31 C 1192.45 1026.6 1178.51 1024.19 1167.25 1025.3 C 1139.62 1029.53 1119.75 1038.76 1102.45 1061.82 C 1083.07 1087.66 1079.3 1129.43 1096.77 1157.18 C 1125.96 1203.55 1164.84 1245.19 1203.28 1284.06 C 1218.7 1299.55 1232.38 1316.09 1252.79 1325.07 L 1264.8 1323.42 z"/>
<path transform="translate(0,0)" fill="rgb(0,0,0)" d="M 867.699 386.421 C 887.624 385.462 911.536 386.206 931.729 386.428 L 1032.3 387.709 C 1047.93 388.051 1063.56 388.213 1079.2 388.195 C 1091.52 388.137 1106.54 387.056 1118.48 388.919 C 1145.04 393.064 1160.44 414.158 1142.51 438.413 C 1122.44 447.025 1081.98 444.473 1059.1 444.334 L 942.8 443.029 C 917.387 442.79 890.033 443.759 864.5 444.251 C 779.348 447.113 691.207 443.976 605.806 443.739 C 573.769 443.65 568.776 391.456 603.34 388.351 C 616.432 387.174 629.192 387.578 642.355 387.653 C 665.443 387.738 688.53 388.02 711.613 388.498 C 763.646 390.12 815.727 389.427 867.699 386.421 z"/>
<path transform="translate(0,0)" fill="rgb(0,0,0)" d="M 910.015 618.5 C 968.692 618 1027.73 620.702 1086.44 620.279 C 1090.84 620.247 1097.91 620.474 1102.04 620.096 C 1131.59 617.399 1165.75 638.11 1142.43 670.371 C 1128.85 676.164 1112.48 676.273 1097.89 676.206 C 1055.59 676.013 1013.04 676.08 970.765 674.476 C 919.53 672.532 868.939 676.783 817.75 676.782 L 672.57 676.246 C 650.564 676.212 627.831 676.807 605.833 676.075 C 592.276 675.625 580.143 662.789 579.487 648.983 C 579.119 641.154 581.956 633.512 587.345 627.82 C 593.079 621.865 597.675 620.915 605.7 620.548 C 653.835 618.947 702.483 620.036 750.688 621.128 C 804.152 622.338 856.667 618.788 910.015 618.5 z"/>
<path transform="translate(0,0)" fill="rgb(0,0,0)" d="M 865.543 858.438 C 933.695 855.55 1004.37 860.34 1072.64 860.238 C 1082.98 860.223 1093.37 860.325 1103.7 860.65 C 1067.92 879.204 1059.47 888.476 1030.44 914.887 C 1013.28 917.074 961.786 914.852 941.777 914.659 C 897.103 914.229 852.974 916.869 808.75 916.958 L 671.705 916.236 L 628.016 916.334 C 615.149 916.397 595.731 918.489 585.501 909.701 C 574.199 899.992 571.85 879.892 582.295 868.562 C 587.125 862.643 594.86 860.744 602.663 860.436 C 639.748 858.969 679.523 860.188 716.354 860.905 C 766.096 862.114 815.868 861.291 865.543 858.438 z"/>
<path transform="translate(0,0)" fill="rgb(0,0,0)" d="M 868.51 1090.43 C 884.836 1089.7 914.018 1089.86 929.502 1091.78 C 928.3 1110.33 928.038 1126.81 927.933 1145.31 C 915.422 1146.74 889.599 1145.91 875.164 1146.65 C 796.213 1150.68 716.447 1148.32 637.25 1148.45 C 621.958 1148.39 598.988 1151.68 586.376 1141.92 C 568.05 1127.75 573.24 1094.8 598.61 1092.52 C 612.717 1091.25 625.808 1091.49 639.986 1091.56 C 662.752 1091.61 685.516 1091.88 708.276 1092.37 C 761.692 1093.83 815.145 1093.18 868.51 1090.43 z"/>
</svg>